<?xml version="1.0" encoding="UTF-8"?>
<svg xmlns="http://www.w3.org/2000/svg" viewBox="0 0 700 1150">
  <defs>
    <linearGradient id="folderGrad" x1="0%" y1="0%" x2="100%" y2="100%">
      <stop offset="0%" style="stop-color:#F59E0B;stop-opacity:1" />
      <stop offset="100%" style="stop-color:#FBBF24;stop-opacity:1" />
    </linearGradient>
    <linearGradient id="sqlGrad" x1="0%" y1="0%" x2="100%" y2="100%">
      <stop offset="0%" style="stop-color:#3B82F6;stop-opacity:1" />
      <stop offset="100%" style="stop-color:#60A5FA;stop-opacity:1" />
    </linearGradient>
    <linearGradient id="notebookGrad" x1="0%" y1="0%" x2="100%" y2="100%">
      <stop offset="0%" style="stop-color:#10B981;stop-opacity:1" />
      <stop offset="100%" style="stop-color:#34D399;stop-opacity:1" />
    </linearGradient>
    <linearGradient id="docsGrad" x1="0%" y1="0%" x2="100%" y2="100%">
      <stop offset="0%" style="stop-color:#8B5CF6;stop-opacity:1" />
      <stop offset="100%" style="stop-color:#A78BFA;stop-opacity:1" />
    </linearGradient>
  </defs>
  
  <rect width="700" height="1150" fill="#F8FAFC"/>
  
  <text x="350" y="35" font-family="Arial, sans-serif" font-size="20" font-weight="bold" fill="#1E293B" text-anchor="middle">Project Structure</text>
  
  <!-- Root -->
  <rect x="30" y="60" width="80" height="30" rx="4" fill="url(#folderGrad)"/>
  <text x="70" y="80" font-family="Arial, sans-serif" font-size="12" font-weight="bold" fill="white" text-anchor="middle">/</text>
  
  <!-- Root level files -->
  <line x1="70" y1="90" x2="70" y2="110" stroke="#CBD5E1" stroke-width="2"/>
  <line x1="70" y1="110" x2="140" y2="110" stroke="#CBD5E1" stroke-width="1"/>
  <rect x="140" y="98" width="180" height="24" rx="3" fill="white" stroke="#E2E8F0" stroke-width="1"/>
  <text x="230" y="115" font-family="monospace" font-size="10" fill="#64748B" text-anchor="middle">README.md</text>
  
  <line x1="70" y1="110" x2="70" y2="135" stroke="#CBD5E1" stroke-width="2"/>
  <line x1="70" y1="135" x2="140" y2="135" stroke="#CBD5E1" stroke-width="1"/>
  <rect x="140" y="123" width="180" height="24" rx="3" fill="white" stroke="#E2E8F0" stroke-width="1"/>
  <text x="230" y="140" font-family="monospace" font-size="10" fill="#64748B" text-anchor="middle">Snowflake_Logo.svg</text>
  
  <line x1="70" y1="135" x2="70" y2="160" stroke="#CBD5E1" stroke-width="2"/>
  <line x1="70" y1="160" x2="140" y2="160" stroke="#CBD5E1" stroke-width="1"/>
  <rect x="140" y="148" width="180" height="24" rx="3" fill="white" stroke="#E2E8F0" stroke-width="1"/>
  <text x="230" y="165" font-family="monospace" font-size="10" fill="#64748B" text-anchor="middle">agent.md</text>
  
  <!-- SQL Folder -->
  <line x1="70" y1="160" x2="70" y2="195" stroke="#CBD5E1" stroke-width="2"/>
  <line x1="70" y1="195" x2="100" y2="195" stroke="#CBD5E1" stroke-width="2"/>
  <rect x="100" y="180" width="80" height="30" rx="4" fill="url(#sqlGrad)"/>
  <text x="140" y="200" font-family="Arial, sans-serif" font-size="12" font-weight="bold" fill="white" text-anchor="middle">sql/</text>
  
  <!-- SQL Subfolders - setup -->
  <line x1="140" y1="210" x2="140" y2="230" stroke="#CBD5E1" stroke-width="2"/>
  <line x1="140" y1="230" x2="170" y2="230" stroke="#CBD5E1" stroke-width="2"/>
  <rect x="170" y="215" width="80" height="30" rx="4" fill="#DBEAFE"/>
  <text x="210" y="235" font-family="Arial, sans-serif" font-size="11" fill="#1E40AF" text-anchor="middle">setup/</text>
  
  <line x1="210" y1="245" x2="210" y2="260" stroke="#CBD5E1" stroke-width="1"/>
  <line x1="210" y1="260" x2="280" y2="260" stroke="#CBD5E1" stroke-width="1"/>
  <rect x="280" y="248" width="220" height="24" rx="3" fill="white" stroke="#E2E8F0" stroke-width="1"/>
  <text x="390" y="265" font-family="monospace" font-size="10" fill="#64748B" text-anchor="middle">01_database_and_schema.sql</text>
  
  <line x1="210" y1="260" x2="210" y2="285" stroke="#CBD5E1" stroke-width="1"/>
  <line x1="210" y1="285" x2="280" y2="285" stroke="#CBD5E1" stroke-width="1"/>
  <rect x="280" y="273" width="220" height="24" rx="3" fill="white" stroke="#E2E8F0" stroke-width="1"/>
  <text x="390" y="290" font-family="monospace" font-size="10" fill="#64748B" text-anchor="middle">02_create_tables.sql</text>
  
  <!-- SQL Subfolders - data -->
  <line x1="140" y1="230" x2="140" y2="320" stroke="#CBD5E1" stroke-width="2"/>
  <line x1="140" y1="320" x2="170" y2="320" stroke="#CBD5E1" stroke-width="2"/>
  <rect x="170" y="305" width="80" height="30" rx="4" fill="#DBEAFE"/>
  <text x="210" y="325" font-family="Arial, sans-serif" font-size="11" fill="#1E40AF" text-anchor="middle">data/</text>
  
  <line x1="210" y1="335" x2="210" y2="350" stroke="#CBD5E1" stroke-width="1"/>
  <line x1="210" y1="350" x2="280" y2="350" stroke="#CBD5E1" stroke-width="1"/>
  <rect x="280" y="338" width="220" height="24" rx="3" fill="white" stroke="#E2E8F0" stroke-width="1"/>
  <text x="390" y="355" font-family="monospace" font-size="10" fill="#64748B" text-anchor="middle">03_generate_synthetic_data.sql</text>
  
  <!-- SQL Subfolders - views -->
  <line x1="140" y1="320" x2="140" y2="390" stroke="#CBD5E1" stroke-width="2"/>
  <line x1="140" y1="390" x2="170" y2="390" stroke="#CBD5E1" stroke-width="2"/>
  <rect x="170" y="375" width="80" height="30" rx="4" fill="#DBEAFE"/>
  <text x="210" y="395" font-family="Arial, sans-serif" font-size="11" fill="#1E40AF" text-anchor="middle">views/</text>
  
  <line x1="210" y1="405" x2="210" y2="420" stroke="#CBD5E1" stroke-width="1"/>
  <line x1="210" y1="420" x2="280" y2="420" stroke="#CBD5E1" stroke-width="1"/>
  <rect x="280" y="408" width="220" height="24" rx="3" fill="white" stroke="#E2E8F0" stroke-width="1"/>
  <text x="390" y="425" font-family="monospace" font-size="10" fill="#64748B" text-anchor="middle">04_create_views.sql</text>
  
  <line x1="210" y1="420" x2="210" y2="445" stroke="#CBD5E1" stroke-width="1"/>
  <line x1="210" y1="445" x2="280" y2="445" stroke="#CBD5E1" stroke-width="1"/>
  <rect x="280" y="433" width="220" height="24" rx="3" fill="white" stroke="#E2E8F0" stroke-width="1"/>
  <text x="390" y="450" font-family="monospace" font-size="10" fill="#64748B" text-anchor="middle">05_create_semantic_views.sql</text>
  
  <!-- SQL Subfolders - search -->
  <line x1="140" y1="390" x2="140" y2="485" stroke="#CBD5E1" stroke-width="2"/>
  <line x1="140" y1="485" x2="170" y2="485" stroke="#CBD5E1" stroke-width="2"/>
  <rect x="170" y="470" width="80" height="30" rx="4" fill="#DBEAFE"/>
  <text x="210" y="490" font-family="Arial, sans-serif" font-size="11" fill="#1E40AF" text-anchor="middle">search/</text>
  
  <line x1="210" y1="500" x2="210" y2="515" stroke="#CBD5E1" stroke-width="1"/>
  <line x1="210" y1="515" x2="280" y2="515" stroke="#CBD5E1" stroke-width="1"/>
  <rect x="280" y="503" width="220" height="24" rx="3" fill="white" stroke="#E2E8F0" stroke-width="1"/>
  <text x="390" y="520" font-family="monospace" font-size="10" fill="#64748B" text-anchor="middle">06_create_cortex_search.sql</text>
  
  <!-- SQL Subfolders - models -->
  <line x1="140" y1="485" x2="140" y2="555" stroke="#CBD5E1" stroke-width="2"/>
  <line x1="140" y1="555" x2="170" y2="555" stroke="#CBD5E1" stroke-width="2"/>
  <rect x="170" y="540" width="80" height="30" rx="4" fill="#DBEAFE"/>
  <text x="210" y="560" font-family="Arial, sans-serif" font-size="11" fill="#1E40AF" text-anchor="middle">models/</text>
  
  <line x1="210" y1="570" x2="210" y2="585" stroke="#CBD5E1" stroke-width="1"/>
  <line x1="210" y1="585" x2="280" y2="585" stroke="#CBD5E1" stroke-width="1"/>
  <rect x="280" y="573" width="220" height="24" rx="3" fill="white" stroke="#E2E8F0" stroke-width="1"/>
  <text x="390" y="590" font-family="monospace" font-size="10" fill="#64748B" text-anchor="middle">07_ml_model_functions.sql</text>
  
  <!-- SQL Subfolders - agent -->
  <line x1="140" y1="555" x2="140" y2="625" stroke="#CBD5E1" stroke-width="2"/>
  <line x1="140" y1="625" x2="170" y2="625" stroke="#CBD5E1" stroke-width="2"/>
  <rect x="170" y="610" width="80" height="30" rx="4" fill="#DBEAFE"/>
  <text x="210" y="630" font-family="Arial, sans-serif" font-size="11" fill="#1E40AF" text-anchor="middle">agent/</text>
  
  <line x1="210" y1="640" x2="210" y2="655" stroke="#CBD5E1" stroke-width="1"/>
  <line x1="210" y1="655" x2="280" y2="655" stroke="#CBD5E1" stroke-width="1"/>
  <rect x="280" y="643" width="220" height="24" rx="3" fill="white" stroke="#E2E8F0" stroke-width="1"/>
  <text x="390" y="660" font-family="monospace" font-size="10" fill="#64748B" text-anchor="middle">08_create_financial_agent.sql</text>
  
  <!-- Notebooks Folder -->
  <line x1="70" y1="195" x2="70" y2="700" stroke="#CBD5E1" stroke-width="2"/>
  <line x1="70" y1="700" x2="100" y2="700" stroke="#CBD5E1" stroke-width="2"/>
  <rect x="100" y="685" width="100" height="30" rx="4" fill="url(#notebookGrad)"/>
  <text x="150" y="705" font-family="Arial, sans-serif" font-size="12" font-weight="bold" fill="white" text-anchor="middle">notebooks/</text>
  
  <line x1="150" y1="715" x2="150" y2="730" stroke="#CBD5E1" stroke-width="1"/>
  <line x1="150" y1="730" x2="280" y2="730" stroke="#CBD5E1" stroke-width="1"/>
  <rect x="280" y="718" width="220" height="24" rx="3" fill="#D1FAE5" stroke="#10B981" stroke-width="1"/>
  <text x="390" y="735" font-family="monospace" font-size="10" fill="#065F46" text-anchor="middle">ml_financial_models.ipynb</text>
  
  <!-- Docs Folder -->
  <line x1="70" y1="700" x2="70" y2="775" stroke="#CBD5E1" stroke-width="2"/>
  <line x1="70" y1="775" x2="100" y2="775" stroke="#CBD5E1" stroke-width="2"/>
  <rect x="100" y="760" width="80" height="30" rx="4" fill="url(#docsGrad)"/>
  <text x="140" y="780" font-family="Arial, sans-serif" font-size="12" font-weight="bold" fill="white" text-anchor="middle">docs/</text>
  
  <!-- Docs files -->
  <line x1="140" y1="790" x2="140" y2="810" stroke="#CBD5E1" stroke-width="1"/>
  <line x1="140" y1="810" x2="280" y2="810" stroke="#CBD5E1" stroke-width="1"/>
  <rect x="280" y="798" width="220" height="24" rx="3" fill="#EDE9FE" stroke="#8B5CF6" stroke-width="1"/>
  <text x="390" y="815" font-family="monospace" font-size="10" fill="#5B21B6" text-anchor="middle">AGENT_SETUP.md</text>
  
  <line x1="140" y1="810" x2="140" y2="835" stroke="#CBD5E1" stroke-width="1"/>
  <line x1="140" y1="835" x2="280" y2="835" stroke="#CBD5E1" stroke-width="1"/>
  <rect x="280" y="823" width="220" height="24" rx="3" fill="#EDE9FE" stroke="#8B5CF6" stroke-width="1"/>
  <text x="390" y="840" font-family="monospace" font-size="10" fill="#5B21B6" text-anchor="middle">DEPLOYMENT_SUMMARY.md</text>
  
  <line x1="140" y1="835" x2="140" y2="860" stroke="#CBD5E1" stroke-width="1"/>
  <line x1="140" y1="860" x2="280" y2="860" stroke="#CBD5E1" stroke-width="1"/>
  <rect x="280" y="848" width="220" height="24" rx="3" fill="#EDE9FE" stroke="#8B5CF6" stroke-width="1"/>
  <text x="390" y="865" font-family="monospace" font-size="10" fill="#5B21B6" text-anchor="middle">questions.md</text>
  
  <!-- Images subfolder -->
  <line x1="140" y1="860" x2="140" y2="900" stroke="#CBD5E1" stroke-width="2"/>
  <line x1="140" y1="900" x2="170" y2="900" stroke="#CBD5E1" stroke-width="2"/>
  <rect x="170" y="885" width="80" height="30" rx="4" fill="#DDD6FE"/>
  <text x="210" y="905" font-family="Arial, sans-serif" font-size="11" fill="#5B21B6" text-anchor="middle">images/</text>
  
  <line x1="210" y1="915" x2="210" y2="930" stroke="#CBD5E1" stroke-width="1"/>
  <line x1="210" y1="930" x2="280" y2="930" stroke="#CBD5E1" stroke-width="1"/>
  <rect x="280" y="918" width="220" height="24" rx="3" fill="#EDE9FE" stroke="#8B5CF6" stroke-width="1"/>
  <text x="390" y="935" font-family="monospace" font-size="10" fill="#5B21B6" text-anchor="middle">architecture.svg</text>
  
  <line x1="210" y1="930" x2="210" y2="955" stroke="#CBD5E1" stroke-width="1"/>
  <line x1="210" y1="955" x2="280" y2="955" stroke="#CBD5E1" stroke-width="1"/>
  <rect x="280" y="943" width="220" height="24" rx="3" fill="#EDE9FE" stroke="#8B5CF6" stroke-width="1"/>
  <text x="390" y="960" font-family="monospace" font-size="10" fill="#5B21B6" text-anchor="middle">deployment_flow.svg</text>
  
  <line x1="210" y1="955" x2="210" y2="980" stroke="#CBD5E1" stroke-width="1"/>
  <line x1="210" y1="980" x2="280" y2="980" stroke="#CBD5E1" stroke-width="1"/>
  <rect x="280" y="968" width="220" height="24" rx="3" fill="#EDE9FE" stroke="#8B5CF6" stroke-width="1"/>
  <text x="390" y="985" font-family="monospace" font-size="10" fill="#5B21B6" text-anchor="middle">ml_models.svg</text>
  
  <line x1="210" y1="980" x2="210" y2="1005" stroke="#CBD5E1" stroke-width="1"/>
  <line x1="210" y1="1005" x2="280" y2="1005" stroke="#CBD5E1" stroke-width="1"/>
  <rect x="280" y="993" width="220" height="24" rx="3" fill="#EDE9FE" stroke="#8B5CF6" stroke-width="1"/>
  <text x="390" y="1010" font-family="monospace" font-size="10" fill="#5B21B6" text-anchor="middle">project_structure.svg</text>
  
  <!-- Legend -->
  <rect x="520" y="60" width="160" height="145" rx="6" fill="white" stroke="#E2E8F0" stroke-width="1"/>
  <text x="600" y="82" font-family="Arial, sans-serif" font-size="11" font-weight="bold" fill="#1E293B" text-anchor="middle">Legend</text>
  <rect x="535" y="95" width="16" height="16" rx="2" fill="url(#sqlGrad)"/>
  <text x="600" y="107" font-family="Arial, sans-serif" font-size="10" fill="#64748B" text-anchor="middle">SQL Scripts</text>
  <rect x="535" y="118" width="16" height="16" rx="2" fill="url(#notebookGrad)"/>
  <text x="600" y="130" font-family="Arial, sans-serif" font-size="10" fill="#64748B" text-anchor="middle">Notebooks</text>
  <rect x="535" y="141" width="16" height="16" rx="2" fill="url(#docsGrad)"/>
  <text x="600" y="153" font-family="Arial, sans-serif" font-size="10" fill="#64748B" text-anchor="middle">Documentation</text>
  <rect x="535" y="164" width="16" height="16" rx="2" fill="white" stroke="#E2E8F0" stroke-width="1"/>
  <text x="600" y="176" font-family="Arial, sans-serif" font-size="10" fill="#64748B" text-anchor="middle">Root Files</text>
</svg>
